<svg width="800.0000000000001" height="600" xmlns="http://www.w3.org/2000/svg">

 <g>
  <title>Layer 1</title>
  <g transform="rotate(-180 400.974 290.261)" id="svg_41">
   <rect id="svg_17" height="106" width="106" y="78.61229" x="82.23965" stroke="#000" fill="#fff"/>
   <rect id="svg_29" height="106" width="106" y="78.61229" x="295.00012" stroke="#000" fill="#fff"/>
   <rect id="svg_12" height="106" width="106" y="78.61229" x="507.51013" stroke="#000" fill="#fff"/>
   <rect id="svg_18" height="106" width="106" y="78.61229" x="188.43832" stroke="#000" fill="#191919"/>
   <rect id="svg_30" height="106" width="106" y="78.61229" x="401.19878" stroke="#000" fill="#191919"/>
   <rect id="svg_9" height="106" width="106" y="78.61229" x="613.70879" stroke="#000" fill="#191919"/>
   <rect id="svg_19" height="106" width="106" y="290.06287" x="82.23965" stroke="#000" fill="#fff"/>
   <rect id="svg_31" height="106" width="106" y="290.06287" x="295.00012" stroke="#000" fill="#fff"/>
   <rect id="svg_13" height="106" width="106" y="290.06287" x="507.51013" stroke="#000" fill="#fff"/>
   <rect id="svg_20" height="106" width="106" y="290.06287" x="188.43832" stroke="#000" fill="#191919"/>
   <rect id="svg_32" height="106" width="106" y="290.06287" x="401.19878" stroke="#000" fill="#191919"/>
   <rect id="svg_3" height="106" width="106" y="290.06287" x="613.70879" stroke="#000" fill="#191919"/>
   <rect id="svg_21" height="106" width="106" y="184.45845" x="82.23965" stroke="#000" fill="#191919"/>
   <rect id="svg_33" height="106" width="106" y="184.45845" x="295.00012" stroke="#000" fill="#191919"/>
   <rect id="svg_14" height="106" width="106" y="184.45845" x="507.51013" stroke="#000" fill="#191919"/>
   <rect id="svg_22" height="106" width="106" y="184.45845" x="188.43832" stroke="#000" fill="#ffffff"/>
   <rect id="svg_34" height="106" width="106" y="184.45845" x="401.19878" stroke="#000" fill="#ffffff"/>
   <rect id="svg_10" height="106" width="106" y="184.45845" x="613.70879" stroke="#000" fill="#ffffff"/>
   <rect id="svg_23" height="106" width="106" y="395.90903" x="82.23965" stroke="#000" fill="#191919"/>
   <rect id="svg_35" height="106" width="106" y="395.90903" x="295.00012" stroke="#000" fill="#191919"/>
   <rect id="svg_15" height="106" width="106" y="395.90903" x="507.51013" stroke="#000" fill="#191919"/>
   <rect id="svg_24" height="106" width="106" y="395.90903" x="188.43832" stroke="#000" fill="#ffffff"/>
   <rect id="svg_36" height="106" width="106" y="395.90903" x="401.19878" stroke="#000" fill="#ffffff"/>
   <rect id="svg_8" height="106" width="106" y="395.90903" x="613.70879" stroke="#000" fill="#ffffff"/>
   <path id="svg_26" d="m195.76609,289.63808l0.56913,0l0.17587,-0.54068l0.17587,0.54068l0.56913,0l-0.46044,0.33415l0.17588,0.54067l-0.46044,-0.33416l-0.46044,0.33416l0.17588,-0.54067l-0.46044,-0.33415z" stroke="#000" fill="#fff"/>
   <path id="svg_38" d="m408.52656,289.63808l0.56913,0l0.17587,-0.54068l0.17587,0.54068l0.56913,0l-0.46044,0.33415l0.17588,0.54067l-0.46044,-0.33416l-0.46044,0.33416l0.17588,-0.54067l-0.46044,-0.33415z" stroke="#000" fill="#fff"/>
   <path id="svg_16" d="m621.03657,289.63808l0.56913,0l0.17587,-0.54068l0.17587,0.54068l0.56913,0l-0.46044,0.33415l0.17588,0.54067l-0.46044,-0.33416l-0.46044,0.33416l0.17588,-0.54067l-0.46044,-0.33415z" stroke="#000" fill="#fff"/>
   <path id="svg_27" d="m301.96475,289.63808l0.56913,0l0.17587,-0.54068l0.17587,0.54068l0.56913,0l-0.46044,0.33415l0.17588,0.54067l-0.46044,-0.33416l-0.46044,0.33416l0.17588,-0.54067l-0.46044,-0.33415z" stroke="#000" fill="#fff"/>
   <path id="svg_39" d="m514.72522,289.63808l0.56913,0l0.17587,-0.54068l0.17587,0.54068l0.56913,0l-0.46044,0.33415l0.17588,0.54067l-0.46044,-0.33416l-0.46044,0.33416l0.17588,-0.54067l-0.46044,-0.33415z" stroke="#000" fill="#fff"/>
   <path id="svg_28" d="m183.60338,490.46442l0.56913,0l0.17587,-0.54067l0.17587,0.54067l0.56913,0l-0.46044,0.33415l0.17588,0.54068l-0.46044,-0.33417l-0.46044,0.33417l0.17588,-0.54068l-0.46044,-0.33415z" stroke="#000" fill="#fff"/>
   <path id="svg_40" d="m396.36385,490.46442l0.56913,0l0.17587,-0.54067l0.17586,0.54067l0.56914,0l-0.46044,0.33415l0.17587,0.54068l-0.46043,-0.33417l-0.46044,0.33417l0.17587,-0.54068l-0.46043,-0.33415z" stroke="#000" fill="#fff"/>
   <path id="svg_7" d="m608.87386,490.46442l0.56913,0l0.17587,-0.54067l0.17587,0.54067l0.56913,0l-0.46044,0.33415l0.17588,0.54067l-0.46044,-0.33416l-0.46044,0.33416l0.17588,-0.54067l-0.46044,-0.33415z" stroke="#000" fill="#fff"/>
  </g>
 </g>
</svg>