<svg width="286" height="512.03" xmlns="http://www.w3.org/2000/svg" clip-rule="evenodd" fill-rule="evenodd" image-rendering="optimizeQuality" text-rendering="geometricPrecision" shape-rendering="geometricPrecision">

 <g>
  <title>Layer 1</title>
  <path id="svg_1" d="m55.833,0l174.334,0c30.715,0 55.833,25.117 55.833,55.833l0,400.364c0,30.707 -25.126,55.833 -55.833,55.833l-174.334,0c-30.716,0 -55.833,-25.117 -55.833,-55.833l0,-400.364c0,-30.674 25.159,-55.833 55.833,-55.833z" fill-rule="nonzero" fill="#43567C"/>
  <path id="svg_2" d="m276.681,70.044l0,371.209l-267.363,0l0,-371.209l267.363,0z" fill="#8CC0F3"/>
  <path id="svg_3" d="m33.083,112.744c-5.543,5.542 -13.972,-2.887 -8.43,-8.429l18.661,-18.661c5.543,-5.543 13.972,2.887 8.43,8.429l-18.661,18.661zm4.432,34.078c-5.542,5.542 -13.971,-2.887 -8.429,-8.43l48.309,-48.308c5.542,-5.543 13.971,2.886 8.429,8.429l-48.309,48.309z" fill-rule="nonzero" fill="#BED7F0"/>
  <text transform="matrix(6.8366 0 0 6.8366 -340.307 -1398.16)" stroke="null" font-style="normal" font-weight="normal" xml:space="preserve" text-anchor="start" font-family="sans-serif" font-size="24" stroke-width="0" id="svg_4" y="249.25299" x="56.83824" fill="#ffffff">+2</text>
 </g>
</svg>