<svg width="620" height="512.03" xmlns="http://www.w3.org/2000/svg" shape-rendering="geometricPrecision" text-rendering="geometricPrecision" image-rendering="optimizeQuality" fill-rule="evenodd" clip-rule="evenodd">
 <g>
  <title>Layer 1</title>
  <path fill="#43567C" fill-rule="nonzero" d="m56.2767,0l174.334,0c30.715,0 55.833,25.117 55.833,55.833l0,400.364c0,30.707 -25.126,55.833 -55.833,55.833l-174.334,0c-30.716,0 -55.833,-25.117 -55.833,-55.833l0,-400.364c0,-30.674 25.159,-55.833 55.833,-55.833z" id="svg_1"/>
  <path fill="#8CC0F3" d="m277.1247,70.044l0,371.209l-267.363,0l0,-371.209l267.363,0z" id="svg_2"/>
  <path fill="#BED7F0" fill-rule="nonzero" d="m33.5267,112.744c-5.543,5.542 -13.972,-2.887 -8.43,-8.429l18.661,-18.661c5.543,-5.543 13.972,2.887 8.43,8.429l-18.661,18.661zm4.432,34.078c-5.542,5.542 -13.971,-2.887 -8.429,-8.43l48.309,-48.308c5.542,-5.543 13.971,2.886 8.429,8.429l-48.309,48.309z" id="svg_3"/>
  <path fill="#43567C" fill-rule="nonzero" d="m389.3893,0l174.334,0c30.715,0 55.833,25.117 55.833,55.833l0,400.364c0,30.707 -25.126,55.833 -55.833,55.833l-174.334,0c-30.716,0 -55.833,-25.117 -55.833,-55.833l0,-400.364c0,-30.674 25.159,-55.833 55.833,-55.833z" id="svg_5"/>
  <path fill="#8CC0F3" d="m610.2373,70.044l0,371.209l-267.363,0l0,-371.209l267.363,0z" id="svg_6"/>
  <path fill="#BED7F0" fill-rule="nonzero" d="m366.6393,112.744c-5.543,5.542 -13.972,-2.887 -8.43,-8.429l18.661,-18.661c5.543,-5.543 13.972,2.887 8.43,8.429l-18.661,18.661zm4.432,34.078c-5.542,5.542 -13.971,-2.887 -8.429,-8.43l48.309,-48.308c5.542,-5.543 13.971,2.886 8.429,8.429l-48.309,48.309z" id="svg_7"/>
  <path fill="#ffffff" d="m155.16181,3.16757c-8.5062,1.56639 -11.33135,8.69079 -11.44159,12.76443c4.6761,0.3384 7.60636,-2.30472 8.79846,-3.85061c1.95094,-2.19449 2.42265,-5.28369 2.64313,-8.91383l0,0.00001zm1.04597,14.0719c-6.15021,0 -9.5855,2.51238 -11.27495,2.54058c-1.94581,-0.15126 -7.60636,-2.42778 -10.90835,-2.46367c-11.56208,0.34353 -14.86919,12.908 -14.72563,18.30962c0.94086,20.67587 13.55917,26.01596 15.62034,26.51587c1.65612,0.32558 7.23207,-2.55084 11.33135,-2.41753c4.4787,0.46659 7.61149,2.32011 9.40605,2.19192c2.27909,-0.15895 9.6983,-6.15277 11.93637,-15.39987c-4.5069,-3.81215 -7.29103,-7.27052 -7.53971,-10.54687c-0.11793,-1.48436 2.11501,-9.87007 5.6708,-12.22607c0.51273,-2.89693 -4.7684,-6.57321 -8.91126,-6.49117c-0.20509,-0.00769 -0.40506,-0.01282 -0.60502,-0.01282l0.00001,0.00001z" id="svg_23"/>
  <path fill="#ffffff" d="m490.16181,3.16756c-8.5062,1.56639 -11.33135,8.69078 -11.44159,12.76443c4.67611,0.3384 7.60637,-2.30472 8.79847,-3.85061c1.95094,-2.19449 2.42265,-5.28369 2.64312,-8.91382zm1.04597,14.07189c-6.1502,0 -9.5855,2.51239 -11.27495,2.54059c-1.94581,-0.15126 -7.60636,-2.42778 -10.90835,-2.46368c-11.56208,0.34353 -14.86919,12.908 -14.72562,18.30962c0.94086,20.67587 13.55916,26.01596 15.62034,26.51588c1.65612,0.32558 7.23207,-2.55084 11.33135,-2.41753c4.4787,0.46658 7.61149,2.32011 9.40605,2.19192c2.27909,-0.15894 9.6983,-6.15277 11.93637,-15.39987c-4.5069,-3.81215 -7.29103,-7.27052 -7.53971,-10.54687c-0.11792,-1.48435 2.11502,-9.87007 5.67081,-12.22607c0.51273,-2.89692 -4.7684,-6.5732 -8.91126,-6.49117c-0.2051,-0.00769 -0.40506,-0.01282 -0.60503,-0.01282z" id="svg_24"/>
  <g stroke="null">
   <g stroke="null">
    <g stroke="null">
     <g stroke="null">
      <path stroke="null" fill=" #a6a6a6" d="m496.13847,172.01541l-366.25735,0c-1.33505,0 -2.65409,0 -3.98561,0.00728c-1.11461,0.00728 -2.22033,0.02843 -3.34565,0.04624a48.11132,48.11132 0 0 0 -7.29565,0.64335a24.26577,24.26577 0 0 0 -6.92058,2.28274a23.43823,23.43823 0 0 0 -5.89306,4.29118a22.78526,22.78526 0 0 0 -4.28958,5.90194a24.03312,24.03312 0 0 0 -2.27545,6.92947a47.30395,47.30395 0 0 0 -0.65242,7.28873c-0.03379,1.11625 -0.03735,2.23621 -0.05516,3.3526l0,84.15268c0.0178,1.13045 0.02137,2.22558 0.05516,3.35639a47.30148,47.30148 0 0 0 0.65242,7.28837a23.9835,23.9835 0 0 0 2.27545,6.93303a22.60083,22.60083 0 0 0 4.28958,5.87722a22.84355,22.84355 0 0 0 5.89306,4.29132a24.39585,24.39585 0 0 0 6.92058,2.29657a48.98648,48.98648 0 0 0 7.29565,0.64368c1.12531,0.02476 2.23104,0.03896 3.34565,0.03896c1.33149,0.00728 2.65063,0.00728 3.98561,0.00728l366.25735,0c1.30848,0 2.63807,0 3.94655,-0.00728c1.10933,0 2.24706,-0.0142 3.35639,-0.03896a48.3452,48.3452 0 0 0 7.28145,-0.64368a24.77266,24.77266 0 0 0 6.94723,-2.29657a22.85437,22.85437 0 0 0 5.88778,-4.29132a23.28179,23.28179 0 0 0 4.30188,-5.87722a24.04383,24.04383 0 0 0 2.25397,-6.93303a49.17321,49.17321 0 0 0 0.67572,-7.28837c0.0142,-1.13081 0.0142,-2.22594 0.0142,-3.35639c0.0284,-1.32268 0.0284,-2.63807 0.0284,-3.98223l0,-76.19555c0,-1.33327 0,-2.65587 -0.0284,-3.97491c0,-1.11639 0,-2.23635 -0.0142,-3.35274a49.17565,49.17565 0 0 0 -0.67572,-7.28873a24.09323,24.09323 0 0 0 -2.25397,-6.92947a23.54163,23.54163 0 0 0 -10.18966,-10.1933a24.63876,24.63876 0 0 0 -6.94723,-2.28274a47.48941,47.48941 0 0 0 -7.28145,-0.64353c-1.10933,-0.01777 -2.24706,-0.0391 -3.35639,-0.0462c-1.30848,-0.00728 -2.63807,-0.00728 -3.94655,-0.00728l0,0.00047z"/>
      <path stroke="null" d="m125.91328,314.45881c-1.10926,0 -2.19172,-0.0142 -3.29227,-0.03896a46.1904,46.1904 0 0 1 -6.80503,-0.5938a21.42134,21.42134 0 0 1 -6.03174,-1.99475a19.68078,19.68078 0 0 1 -5.08609,-3.70116a19.37165,19.37165 0 0 1 -3.7154,-5.08427a20.83172,20.83172 0 0 1 -1.97691,-6.03341a45.19419,45.19419 0 0 1 -0.60618,-6.82636c-0.02308,-0.76783 -0.0533,-3.32435 -0.0533,-3.32435l0,-84.10281s0.03218,-2.51723 0.05348,-3.25677a45.0372,45.0372 0 0 1 0.60265,-6.81569a20.9542,20.9542 0 0 1 1.97859,-6.05125a19.5634,19.5634 0 0 1 3.69585,-5.08955a20.2622,20.2622 0 0 1 5.10554,-3.72253a21.20027,21.20027 0 0 1 6.01928,-1.98034a45.82178,45.82178 0 0 1 6.82822,-0.5973l3.2851,-0.04445l374.15212,0l3.32435,0.04624a45.09013,45.09013 0 0 1 6.76592,0.59195a21.61983,21.61983 0 0 1 6.08329,1.99457a20.36527,20.36527 0 0 1 8.79235,8.8103a20.9803,20.9803 0 0 1 1.94852,6.00327a47.31123,47.31123 0 0 1 0.63276,6.87081c0.01056,1.03105 0.01056,2.13856 0.01056,3.24076c0.02876,1.36527 0.02876,2.66476 0.02876,3.97491l0,76.19555c0,1.32268 0,2.61331 -0.02876,3.91451c0,1.18396 0,2.26854 -0.0142,3.38478a46.35103,46.35103 0 0 1 -0.6222,6.74809a20.89413,20.89413 0 0 1 -1.96599,6.08001a19.95223,19.95223 0 0 1 -3.69752,5.04495a19.70689,19.70689 0 0 1 -5.09483,3.72264a21.34077,21.34077 0 0 1 -6.07273,2.00167a45.66264,45.66264 0 0 1 -6.80524,0.5938c-1.06637,0.02476 -2.18298,0.03896 -3.26719,0.03896l-3.94655,0.00728l-370.22519,-0.00728z"/>
     </g>
     <g stroke="null" data-name="&lt;Group&gt;" id="svg_10">
      <g stroke="null" data-name="&lt;Group&gt;" id="svg_11">
       <g stroke="null" data-name="&lt;Group&gt;" id="svg_12">
        <path stroke="null" fill=" #fff" d="m185.34467,245.92462a18.01726,18.01726 0 0 1 8.57959,-15.11651a18.44268,18.44268 0 0 0 -14.53072,-7.85552c-6.11365,-0.64171 -12.04057,3.65831 -15.15598,3.65831c-3.1757,0 -7.97235,-3.5946 -13.13756,-3.48833a19.35151,19.35151 0 0 0 -16.28468,9.93143c-7.04116,12.19068 -1.78909,30.10687 4.95576,39.9609c3.37459,4.82524 7.31851,10.21515 12.47906,10.02401c5.04991,-0.20945 6.93595,-3.22015 13.03161,-3.22015c6.03909,0 7.80859,3.22015 13.07385,3.09862c5.41878,-0.08796 8.83287,-4.84668 12.08907,-9.71761a39.90964,39.90964 0 0 0 5.52815,-11.25898a17.41013,17.41013 0 0 1 -10.62815,-16.01617z" data-name="&lt;Path&gt;" id="svg_14"/>
        <path stroke="null" fill=" #fff" d="m175.39955,216.47191a17.73936,17.73936 0 0 0 4.05766,-12.70839a18.04875,18.04875 0 0 0 -11.67792,6.04219a16.87964,16.87964 0 0 0 -4.16393,12.2379a14.92352,14.92352 0 0 0 11.78419,-5.57169z" data-name="&lt;Path&gt;" id="svg_13"/>
       </g>
      </g>
      <g stroke="null">
       <path stroke="null" fill=" #fff" d="m249.17894,270.82343l-17.23301,0l-4.13849,12.21991l-7.29922,0l16.32283,-45.21053l7.58363,0l16.32283,45.21053l-7.42369,0l-4.13488,-12.21991zm-15.44822,-5.63887l13.66,0l-6.73392,-19.83202l-0.18844,0l-6.73764,19.83202z"/>
       <path stroke="null" fill=" #fff" d="m295.98928,266.56408c0,10.24311 -5.48242,16.82412 -13.75583,16.82412a11.17448,11.17448 0 0 1 -10.37108,-5.76691l-0.15655,0l0,16.3264l-6.76592,0l0,-43.86645l6.54916,0l0,5.48242l0.12444,0a11.69263,11.69263 0 0 1 10.49552,-5.82731c8.3657,0.00004 13.88027,6.61305 13.88027,16.82773zm-6.95437,0c0,-6.67345 -3.44875,-11.06085 -8.71073,-11.06085c-5.16954,0 -8.64672,4.4798 -8.64672,11.06085c0,6.64148 3.47718,11.08929 8.64672,11.08929c5.26201,0 8.71073,-4.35536 8.71073,-11.08929z"/>
       <path stroke="null" fill=" #fff" d="m332.26853,266.56408c0,10.24311 -5.48242,16.82412 -13.75583,16.82412a11.17448,11.17448 0 0 1 -10.37108,-5.76691l-0.15655,0l0,16.3264l-6.76592,0l0,-43.86645l6.54901,0l0,5.48242l0.12444,0a11.69263,11.69263 0 0 1 10.49556,-5.82727c8.36595,0 13.88038,6.61301 13.88038,16.82769zm-6.95437,0c0,-6.67345 -3.44875,-11.06085 -8.71073,-11.06085c-5.16954,0 -8.64672,4.4798 -8.64672,11.06085c0,6.64148 3.47718,11.08929 8.64672,11.08929c5.26201,0 8.71076,-4.35536 8.71076,-11.08929l-0.00004,0z"/>
       <path stroke="null" fill=" #fff" d="m356.24613,270.44655c0.50133,4.48337 4.85673,7.42708 10.8084,7.42708c5.70287,0 9.80579,-2.94385 9.80579,-6.98637c0,-3.50919 -2.47456,-5.61036 -8.33384,-7.05034l-5.85927,-1.41151c-8.30184,-2.00524 -12.15591,-5.88775 -12.15591,-12.18791c0,-7.80055 6.79793,-13.15853 16.4508,-13.15853c9.55326,0 16.10238,5.35798 16.32283,13.15853l-6.83,0c-0.40885,-4.51181 -4.13849,-7.23521 -9.58891,-7.23521s-9.18002,2.75545 -9.18002,6.76592c0,3.1963 2.38213,5.0771 8.2094,6.5169l4.9811,1.22307c9.27602,2.19368 13.1301,5.91982 13.1301,12.53276c0,8.45828 -6.73749,13.75583 -17.45346,13.75583c-10.02623,0 -16.79569,-5.17311 -17.23301,-13.35054l6.92601,0.00033z"/>
       <path stroke="null" fill=" #fff" d="m398.60867,242.28069l0,7.80055l6.26816,0l0,5.35798l-6.26816,0l0,18.17163c0,2.82298 1.25507,4.13849 4.01048,4.13849a21.14359,21.14359 0 0 0 2.22568,-0.15655l0,5.32598a18.58048,18.58048 0 0 1 -3.75807,0.31288c-6.67345,0 -9.27602,-2.50657 -9.27602,-8.89917l0,-18.89326l-4.79265,0l0,-5.35798l4.79258,0l0,-7.80055l6.798,0z"/>
       <path stroke="null" fill=" #fff" d="m408.50704,266.56408c0,-10.37108 6.10816,-16.88813 15.63309,-16.88813c9.55691,0 15.63663,6.5169 15.63663,16.88813c0,10.39955 -6.04772,16.88813 -15.63663,16.88813c-9.58552,0 -15.63309,-6.48861 -15.63309,-16.88813zm24.37579,0c0,-7.11434 -3.26031,-11.31326 -8.74273,-11.31326s-8.73916,4.23092 -8.73916,11.31326c0,7.14278 3.25674,11.30973 8.73916,11.30973s8.74258,-4.16696 8.74258,-11.30973l0.00015,0z"/>
       <path stroke="null" fill=" #fff" d="m445.35505,250.08123l6.45304,0l0,5.61036l0.15655,0a7.86178,7.86178 0 0 1 7.92852,-5.95528a10.4349,10.4349 0 0 1 2.31812,0.25245l0,6.3286a9.45839,9.45839 0 0 0 -3.04001,-0.40885a6.81777,6.81777 0 0 0 -7.05034,7.58363l0,19.55113l-6.76592,0l0.00004,-32.96204z"/>
       <path stroke="null" fill=" #fff" d="m493.40622,273.36197c-0.91018,5.98371 -6.73749,10.0902 -14.19315,10.0902c-9.58891,0 -15.54062,-6.42461 -15.54062,-16.73168c0,-10.33908 5.98371,-17.04457 15.25621,-17.04457c9.11958,0 14.85445,6.2646 14.85445,16.25883l0,2.31812l-23.28073,0l0,0.40885a8.58483,8.58483 0 0 0 8.86717,9.33646a7.45744,7.45744 0 0 0 7.6121,-4.63625l6.42457,0.00004zm-22.87188,-9.83779l16.47927,0a7.92695,7.92695 0 0 0 -8.08496,-8.36584a8.34454,8.34454 0 0 0 -8.39431,8.36588l0,-0.00004z"/>
      </g>
     </g>
    </g>
    <g stroke="null" data-name="&lt;Group&gt;" id="svg_9">
     <g stroke="null">
      <path stroke="null" fill=" #fff" d="m232.88276,203.80258a9.61021,9.61021 0 0 1 10.22177,10.79417c0,6.94013 -3.75093,10.92946 -10.22177,10.92946l-7.84675,0l0,-21.72363l7.84675,0zm-4.4727,18.65144l4.09582,0a6.82956,6.82956 0 0 0 7.16411,-7.813a6.84821,6.84821 0 0 0 -7.16411,-7.76854l-4.09582,0l0,15.58154z"/>
      <path stroke="null" fill=" #fff" d="m246.9159,217.32184a7.76651,7.76651 0 1 1 15.46242,0a7.76778,7.76778 0 1 1 -15.46242,0zm12.13454,0c0,-3.5536 -1.59639,-5.63173 -4.398,-5.63173c-2.81232,0 -4.39436,2.07813 -4.39436,5.63177c0,3.58207 1.58215,5.64418 4.39436,5.64418c2.80168,-0.00004 4.39803,-2.07638 4.39803,-5.64422l-0.00004,0z"/>
      <path stroke="null" fill=" #fff" d="m282.93207,225.52589l-3.35628,0l-3.38828,-12.07414l-0.25598,0l-3.37408,12.07414l-3.32431,0l-4.51891,-16.39393l3.28164,0l2.93676,12.50953l0.24178,0l3.37051,-12.50953l3.10386,0l3.37051,12.50953l0.25598,0l2.92252,-12.50953l3.2354,0l-4.50114,16.39393z"/>
      <path stroke="null" fill=" #fff" d="m291.23394,209.13195l3.1145,0l0,2.60432l0.24178,0a4.9077,4.9077 0 0 1 4.89223,-2.92077a5.33206,5.33206 0 0 1 5.6744,6.09749l0,10.61272l-3.2354,0l0,-9.80025c0,-2.63454 -1.14483,-3.94473 -3.53762,-3.94473a3.76065,3.76065 0 0 0 -3.91451,4.15447l0,9.59069l-3.2354,0l0.00004,-16.39393z"/>
      <path stroke="null" fill=" #fff" d="m310.31219,202.73221l3.2354,0l0,22.79364l-3.2354,0l0,-22.79364z"/>
      <path stroke="null" fill=" #fff" d="m318.04516,217.32184a7.76734,7.76734 0 1 1 15.4642,0a7.76858,7.76858 0 1 1 -15.4642,0zm12.13454,0c0,-3.5536 -1.59639,-5.63173 -4.398,-5.63173c-2.81232,0 -4.39436,2.07813 -4.39436,5.63177c0,3.58207 1.58215,5.64418 4.39436,5.64418c2.80165,-0.00004 4.39803,-2.07638 4.39803,-5.64422l-0.00004,0z"/>
      <path stroke="null" fill=" #fff" d="m336.91544,220.88968c0,-2.95099 2.19725,-4.65223 6.09749,-4.89401l4.4407,-0.25598l0,-1.41504c0,-1.73149 -1.14483,-2.70921 -3.35628,-2.70921c-1.80613,0 -3.05763,0.66309 -3.41675,1.82215l-3.1323,0c0.33065,-2.81588 2.97942,-4.62201 6.69835,-4.62201c4.11005,0 6.42817,2.04609 6.42817,5.50907l0,11.20128l-3.11453,0l0,-2.30389l-0.25598,0a5.5157,5.5157 0 0 1 -4.92423,2.57399a4.95233,4.95233 0 0 1 -5.46466,-4.90635zm10.53819,-1.40084l0,-1.37059l-4.00338,0.25598c-2.25769,0.15109 -3.28164,0.91906 -3.28164,2.36432c0,1.47548 1.27993,2.33411 3.04001,2.33411a3.86463,3.86463 0 0 0 4.24501,-3.58382z"/>
      <path stroke="null" fill=" #fff" d="m354.92706,217.32184c0,-5.18021 2.66301,-8.46185 6.80503,-8.46185a5.40284,5.40284 0 0 1 5.02733,2.87617l0.24178,0l0,-9.00395l3.2354,0l0,22.79364l-3.1003,0l0,-2.59012l-0.25598,0a5.68987,5.68987 0 0 1 -5.1482,2.8603c-4.17049,0.00018 -6.80506,-3.28153 -6.80506,-8.47419zm3.34219,0c0,3.47718 1.63905,5.56955 4.38027,5.56955c2.7269,0 4.41223,-2.12254 4.41223,-5.55531c0,-3.41675 -1.70302,-5.56955 -4.41223,-5.56955c-2.72355,0 -4.38038,2.10656 -4.38038,5.55531l0.00011,0z"/>
      <path stroke="null" fill=" #fff" d="m383.62268,217.32184a7.76651,7.76651 0 1 1 15.46242,0a7.76778,7.76778 0 1 1 -15.46242,0zm12.13454,0c0,-3.5536 -1.59639,-5.63173 -4.398,-5.63173c-2.81232,0 -4.39436,2.07813 -4.39436,5.63177c0,3.58207 1.58215,5.64418 4.39436,5.64418c2.80165,-0.00004 4.398,-2.07638 4.398,-5.64422z"/>
      <path stroke="null" fill=" #fff" d="m403.42623,209.13195l3.11453,0l0,2.60432l0.24178,0a4.9077,4.9077 0 0 1 4.89223,-2.92077a5.33206,5.33206 0 0 1 5.6744,6.09749l0,10.61272l-3.2354,0l0,-9.80025c0,-2.63454 -1.14483,-3.94473 -3.53762,-3.94473a3.76065,3.76065 0 0 0 -3.91451,4.15447l0,9.59069l-3.2354,0l0,-16.39393z"/>
      <path stroke="null" fill=" #fff" d="m435.63103,205.05037l0,4.15625l3.55186,0l0,2.72523l-3.55186,0l0,8.42985c0,1.71726 0.70754,2.46921 2.31812,2.46921a10.80047,10.80047 0 0 0 1.23373,-0.07467l0,2.69497a10.61454,10.61454 0 0 1 -1.75993,0.16533c-3.59806,0 -5.0309,-1.26573 -5.0309,-4.42647l0,-9.25837l-2.60254,0l0,-2.72523l2.60254,0l0,-4.15611l3.23897,0z"/>
      <path stroke="null" fill=" #fff" d="m443.60222,202.73221l3.20697,0l0,9.03428l0.25598,0a5.04459,5.04459 0 0 1 4.99872,-2.93676a5.40062,5.40062 0 0 1 5.64596,6.11172l0,10.58443l-3.23864,0l0,-9.78627c0,-2.61856 -1.21964,-3.94473 -3.50562,-3.94473a3.82983,3.82983 0 0 0 -4.12782,4.15625l0,9.57467l-3.2354,0l-0.00015,-22.7936z"/>
      <path stroke="null" fill=" #fff" d="m476.57496,221.09942a6.65525,6.65525 0 0 1 -7.10368,4.74288a7.44641,7.44641 0 0 1 -7.573,-8.46181a7.56124,7.56124 0 0 1 7.55877,-8.56495c4.56157,0 7.31345,3.11646 7.31345,8.26445l0,1.12895l-11.57638,0l0,0.18131a4.33319,4.33319 0 0 0 4.36603,4.69654a3.92958,3.92958 0 0 0 3.90027,-1.98747l3.11453,0.00011zm-11.38091,-5.28331l8.2805,0a3.95554,3.95554 0 0 0 -4.03538,-4.24691a4.19273,4.19273 0 0 0 -4.24505,4.24691l-0.00007,0z"/>
     </g>
    </g>
   </g>
  </g>
 </g>

</svg>