<svg width="620" height="512.03" xmlns="http://www.w3.org/2000/svg" clip-rule="evenodd" fill-rule="evenodd" image-rendering="optimizeQuality" text-rendering="geometricPrecision" shape-rendering="geometricPrecision">

 <g>
  <title>Layer 1</title>
  <path id="svg_1" d="m56.2767,0l174.334,0c30.715,0 55.833,25.117 55.833,55.833l0,400.364c0,30.707 -25.126,55.833 -55.833,55.833l-174.334,0c-30.716,0 -55.833,-25.117 -55.833,-55.833l0,-400.364c0,-30.674 25.159,-55.833 55.833,-55.833z" fill-rule="nonzero" fill="#43567C"/>
  <path id="svg_2" d="m277.1247,70.044l0,371.209l-267.363,0l0,-371.209l267.363,0z" fill="#8CC0F3"/>
  <path id="svg_3" d="m33.5267,112.744c-5.543,5.542 -13.972,-2.887 -8.43,-8.429l18.661,-18.661c5.543,-5.543 13.972,2.887 8.43,8.429l-18.661,18.661zm4.432,34.078c-5.542,5.542 -13.971,-2.887 -8.429,-8.43l48.309,-48.308c5.542,-5.543 13.971,2.886 8.429,8.429l-48.309,48.309z" fill-rule="nonzero" fill="#BED7F0"/>
  <path id="svg_5" d="m389.3893,0l174.334,0c30.715,0 55.833,25.117 55.833,55.833l0,400.364c0,30.707 -25.126,55.833 -55.833,55.833l-174.334,0c-30.716,0 -55.833,-25.117 -55.833,-55.833l0,-400.364c0,-30.674 25.159,-55.833 55.833,-55.833z" fill-rule="nonzero" fill="#43567C"/>
  <path id="svg_6" d="m610.2373,70.044l0,371.209l-267.363,0l0,-371.209l267.363,0z" fill="#8CC0F3"/>
  <path id="svg_7" d="m366.6393,112.744c-5.543,5.542 -13.972,-2.887 -8.43,-8.429l18.661,-18.661c5.543,-5.543 13.972,2.887 8.43,8.429l-18.661,18.661zm4.432,34.078c-5.542,5.542 -13.971,-2.887 -8.429,-8.43l48.309,-48.308c5.542,-5.543 13.971,2.886 8.429,8.429l-48.309,48.309z" fill-rule="nonzero" fill="#BED7F0"/>
  <text transform="matrix(7.24658 0 0 7.24658 -2891.34 -1425.8)" stroke="null" font-style="normal" font-weight="normal" xml:space="preserve" text-anchor="start" font-family="sans-serif" font-size="24" stroke-width="0" id="svg_8" y="238.6613" x="450.99311" fill="#ffffff">+2</text>
  <path id="svg_23" d="m155.16181,3.16757c-8.5062,1.56639 -11.33135,8.69079 -11.44159,12.76443c4.6761,0.3384 7.60636,-2.30472 8.79846,-3.85061c1.95094,-2.19449 2.42265,-5.28369 2.64313,-8.91383zm1.04597,14.0719c-6.15021,0 -9.5855,2.51238 -11.27495,2.54058c-1.94581,-0.15126 -7.60636,-2.42778 -10.90835,-2.46367c-11.56208,0.34353 -14.86919,12.908 -14.72563,18.30962c0.94086,20.67587 13.55917,26.01596 15.62034,26.51587c1.65612,0.32558 7.23207,-2.55084 11.33135,-2.41753c4.4787,0.46659 7.61149,2.32011 9.40605,2.19192c2.27909,-0.15895 9.6983,-6.15277 11.93637,-15.39987c-4.5069,-3.81215 -7.29103,-7.27052 -7.53971,-10.54687c-0.11793,-1.48436 2.11501,-9.87007 5.6708,-12.22607c0.51273,-2.89693 -4.7684,-6.57321 -8.91126,-6.49117c-0.20509,-0.00769 -0.40506,-0.01282 -0.60502,-0.01282z" fill="#ffffff"/>
  <path id="svg_24" d="m490.16181,3.16756c-8.5062,1.56639 -11.33135,8.69078 -11.44159,12.76443c4.67611,0.3384 7.60637,-2.30472 8.79847,-3.85061c1.95094,-2.19449 2.42265,-5.28369 2.64312,-8.91382zm1.04597,14.07189c-6.1502,0 -9.5855,2.51239 -11.27495,2.54059c-1.94581,-0.15126 -7.60636,-2.42778 -10.90835,-2.46368c-11.56208,0.34353 -14.86919,12.908 -14.72562,18.30962c0.94086,20.67587 13.55916,26.01596 15.62034,26.51588c1.65612,0.32558 7.23207,-2.55084 11.33135,-2.41753c4.4787,0.46658 7.61149,2.32011 9.40605,2.19192c2.27909,-0.15894 9.6983,-6.15277 11.93637,-15.39987c-4.5069,-3.81215 -7.29103,-7.27052 -7.53971,-10.54687c-0.11792,-1.48435 2.11502,-9.87007 5.67081,-12.22607c0.51273,-2.89692 -4.7684,-6.5732 -8.91126,-6.49117c-0.2051,-0.00769 -0.40506,-0.01282 -0.60503,-0.01282z" fill="#ffffff"/>
 </g>
</svg>